<svg id="visual" viewBox="0 0 1400 600" width="1400" height="600" xmlns="http://www.w3.org/2000/svg" xmlns:xlink="http://www.w3.org/1999/xlink" version="1.1"><path d="M0 338L19.5 332.5C39 327 78 316 116.8 314C155.7 312 194.3 319 233.2 322C272 325 311 324 350 317C389 310 428 297 466.8 289.5C505.7 282 544.3 280 583.2 283.5C622 287 661 296 700 299.8C739 303.7 778 302.3 816.8 308C855.7 313.7 894.3 326.3 933.2 326.2C972 326 1011 313 1050 303.2C1089 293.3 1128 286.7 1166.8 291.8C1205.7 297 1244.3 314 1283.2 322.5C1322 331 1361 331 1380.5 331L1400 331L1400 601L1380.5 601C1361 601 1322 601 1283.2 601C1244.3 601 1205.7 601 1166.8 601C1128 601 1089 601 1050 601C1011 601 972 601 933.2 601C894.3 601 855.7 601 816.8 601C778 601 739 601 700 601C661 601 622 601 583.2 601C544.3 601 505.7 601 466.8 601C428 601 389 601 350 601C311 601 272 601 233.2 601C194.3 601 155.7 601 116.8 601C78 601 39 601 19.5 601L0 601Z" fill="#f7c114"></path><path d="M0 349L19.5 357.8C39 366.7 78 384.3 116.8 392C155.7 399.7 194.3 397.3 233.2 389C272 380.7 311 366.3 350 365.8C389 365.3 428 378.7 466.8 379.3C505.7 380 544.3 368 583.2 367C622 366 661 376 700 382.7C739 389.3 778 392.7 816.8 386.2C855.7 379.7 894.3 363.3 933.2 364C972 364.7 1011 382.3 1050 390.2C1089 398 1128 396 1166.8 395.3C1205.7 394.7 1244.3 395.3 1283.2 389C1322 382.7 1361 369.3 1380.5 362.7L1400 356L1400 601L1380.5 601C1361 601 1322 601 1283.2 601C1244.3 601 1205.7 601 1166.8 601C1128 601 1089 601 1050 601C1011 601 972 601 933.2 601C894.3 601 855.7 601 816.8 601C778 601 739 601 700 601C661 601 622 601 583.2 601C544.3 601 505.7 601 466.8 601C428 601 389 601 350 601C311 601 272 601 233.2 601C194.3 601 155.7 601 116.8 601C78 601 39 601 19.5 601L0 601Z" fill="#f6d25d"></path><path d="M0 419L19.5 425.2C39 431.3 78 443.7 116.8 442C155.7 440.3 194.3 424.7 233.2 414.3C272 404 311 399 350 399.8C389 400.7 428 407.3 466.8 411.8C505.7 416.3 544.3 418.7 583.2 415C622 411.3 661 401.7 700 399.5C739 397.3 778 402.7 816.8 407.5C855.7 412.3 894.3 416.7 933.2 419C972 421.3 1011 421.7 1050 426.8C1089 432 1128 442 1166.8 439.2C1205.7 436.3 1244.3 420.7 1283.2 413.8C1322 407 1361 409 1380.5 410L1400 411L1400 601L1380.5 601C1361 601 1322 601 1283.2 601C1244.3 601 1205.7 601 1166.8 601C1128 601 1089 601 1050 601C1011 601 972 601 933.2 601C894.3 601 855.7 601 816.8 601C778 601 739 601 700 601C661 601 622 601 583.2 601C544.3 601 505.7 601 466.8 601C428 601 389 601 350 601C311 601 272 601 233.2 601C194.3 601 155.7 601 116.8 601C78 601 39 601 19.5 601L0 601Z" fill="#f7e191"></path><path d="M0 512L19.5 503.3C39 494.7 78 477.3 116.8 471C155.7 464.7 194.3 469.3 233.2 475.8C272 482.3 311 490.7 350 494.3C389 498 428 497 466.8 489.5C505.7 482 544.3 468 583.2 464.2C622 460.3 661 466.7 700 470.3C739 474 778 475 816.8 475.3C855.7 475.7 894.3 475.3 933.2 478.7C972 482 1011 489 1050 495C1089 501 1128 506 1166.8 504.2C1205.7 502.3 1244.3 493.7 1283.2 484.3C1322 475 1361 465 1380.5 460L1400 455L1400 601L1380.5 601C1361 601 1322 601 1283.2 601C1244.3 601 1205.7 601 1166.8 601C1128 601 1089 601 1050 601C1011 601 972 601 933.2 601C894.3 601 855.7 601 816.8 601C778 601 739 601 700 601C661 601 622 601 583.2 601C544.3 601 505.7 601 466.8 601C428 601 389 601 350 601C311 601 272 601 233.2 601C194.3 601 155.7 601 116.8 601C78 601 39 601 19.5 601L0 601Z" fill="#f9efc3"></path><path d="M0 569L19.5 563.7C39 558.3 78 547.7 116.8 538.7C155.7 529.7 194.3 522.3 233.2 521.8C272 521.3 311 527.7 350 531.3C389 535 428 536 466.8 541C505.7 546 544.3 555 583.2 551.7C622 548.3 661 532.7 700 531.2C739 529.7 778 542.3 816.8 549.2C855.7 556 894.3 557 933.2 559.3C972 561.7 1011 565.3 1050 561.7C1089 558 1128 547 1166.8 544.2C1205.7 541.3 1244.3 546.7 1283.2 548.5C1322 550.3 1361 548.7 1380.5 547.8L1400 547L1400 601L1380.5 601C1361 601 1322 601 1283.2 601C1244.3 601 1205.7 601 1166.8 601C1128 601 1089 601 1050 601C1011 601 972 601 933.2 601C894.3 601 855.7 601 816.8 601C778 601 739 601 700 601C661 601 622 601 583.2 601C544.3 601 505.7 601 466.8 601C428 601 389 601 350 601C311 601 272 601 233.2 601C194.3 601 155.7 601 116.8 601C78 601 39 601 19.5 601L0 601Z" fill="#fdfcf5"></path></svg>